<?xml version="1.0" encoding="utf-8"?>
<!-- Generator: Adobe Illustrator 24.0.0, SVG Export Plug-In . SVG Version: 6.00 Build 0)  -->
<svg version="1.1" id="Capa_1" xmlns="http://www.w3.org/2000/svg" xmlns:xlink="http://www.w3.org/1999/xlink" x="0px" y="0px"
	 viewBox="0 0 1080 1080" style="enable-background:new 0 0 1080 1080;" xml:space="preserve">
<style type="text/css">
	.st0{opacity:0.3;fill:#8A1FFF;stroke:#FF00FF;stroke-miterlimit:10;enable-background:new    ;}
	.st1{display:none;fill:#F8F3F8;enable-background:new    ;}
	.st2{font-family:'Georgia';}
	.st3{font-size:54px;}
	.st4{fill:none;stroke:#FFFFFF;stroke-width:4;stroke-miterlimit:10;}
	.st5{fill:#FF00FF;stroke:#FFFFFF;stroke-width:4;stroke-miterlimit:10;}
</style>
<g id="Capa_1_1_">
	<path class="st0" d="M758.2,855.5H338.8c-37.7,0-68.3-30.6-68.3-68.3V367.8c0-37.7,30.6-68.3,68.3-68.3h419.4
		c37.7,0,68.3,30.6,68.3,68.3v419.4C826.5,824.9,795.9,855.5,758.2,855.5z"/>
	<text transform="matrix(0.9905 0 0 1 344.0005 785.5713)" class="st1 st2 st3">ULTRAVIOLET</text>
	<polyline class="st4" points="394.5,747.5 394.5,784.5 414.5,784.5 	"/>
	<g>
		<path class="st5" d="M418.5,749.5c9.3,0,18.7,0,28,0"/>
		<line class="st4" x1="432.5" y1="748.5" x2="432.5" y2="784.5"/>
	</g>
	<path class="st4" d="M459.5,783.5c1-15,0-35,0-35s19-3,18,7c-1.8,18.2-17,13-17,13l22,16"/>
	<polyline class="st4" points="492.5,783.5 505.5,748.5 517.5,783.5 	"/>
	<line class="st4" x1="497" y1="771" x2="513" y2="771"/>
	<polyline class="st4" points="528,751 541,784 554,750 	"/>
	<path class="st4" d="M569.5,747.5c0,12.3,0,24.7,0,37"/>
	<path class="st4" d="M600.5,746.5c9.2,0.5,15.5,11.7,15,21c-0.5,9-7.4,19-16,19c-9.4,0-17-11.7-16-22
		C584.3,755.7,591.6,746,600.5,746.5z"/>
	<path class="st4" d="M628.5,746.5c0,21,0,37,0,37h20"/>
	<polyline class="st4" points="680.5,747.5 660.5,747.5 660.5,784.5 679.5,784.5 	"/>
	<line class="st4" x1="661" y1="767" x2="678" y2="767"/>
	<path class="st4" d="M688.5,746.5c10,0,20,0,30,0"/>
	<line class="st4" x1="704" y1="748" x2="704" y2="787"/>
</g>
<g id="Capa_2_1_">
	<polyline class="st4" points="743.2,770.5 727.3,770.5 735.8,749 750,785 720.5,785 	"/>
	<path class="st4" d="M352.5,748.5c0,0,1.6,35.7,11,36c9.6,0.4,14-36,14-36"/>
</g>
</svg>
